<?xml version="1.0" encoding="UTF-8"?><svg xmlns="http://www.w3.org/2000/svg" viewBox="0 0 741.17 501"><defs><style>.d{fill:#2e1347;stroke:#2e1347;stroke-miterlimit:10;}</style></defs><g id="a"/><g id="b"><g id="c"><g><polygon class="d" points="740.67 387.36 555.45 500.5 558.39 500.5 740.67 389.16 740.67 387.36"/><path class="d" d="M606.15,400.04l-83.6,100.46h1.99l84.1-101.06,132.03-31.83v-1.58l-130.39,31.43,35.79-43.01,94.59-.52v-1.53l-93.31,.52,19.1-22.95,74.21,13.28v-1.56l-73.09-13.08,24.89-29.9,48.2,24.97v-1.73l-47.2-24.45,4.73-5.69,42.47,26.18v-1.8l-41.48-25.57,14.63-17.58,26.84,25.59v-2.12l-25.86-24.65,2.4-2.88,23.46,24.48v-2.21l-22.48-23.45,22.48-27.01v-5.75l-138.78-133.95s-.05-.04-.08-.06h-.02v-.02h0L478.49,17.62l-2.93-17.12h-1.55l2.98,17.4s0,.07-.01,.11h0c0,.11,.02,.2,.05,.29v.02s.03,.06,.05,.09l5.38,31.36L443.9,.5h-1.95l40.66,51.96-27.78,19.68L441.19,.5h-64.31l-.52,33.64-19.46-11.4,7.39-22.24h-1.61l-6.36,19.13-2.15-19.13h-1.54l2.38,21.13-28.91-16.93,4.58-4.2h-2.27l-2.68,2.46,.19-2.46h-1.54l-.31,4.01-36.96,40.22-123.37,111.94,43.64-120.61L298.51,.5h-11.67l4.87,1.01-84.21,32.85-1.2-33.86h-1.53l1.09,30.88L192.68,.5h-31.11l27.14,58.61-59.76,82.52s-.01,.03-.02,.04v.02s-.03,.02-.04,.04h0s-.01,.04-.02,.05c0,.02-.02,.04-.02,.06,0,.01-.01,.02-.01,.04,0,.03-.01,.05-.01,.08v.02s0,.02-.01,.03l-6.13,54.53s0,.01,0,.02c0,.02,0,.03,0,.04,0,.06,0,.12,.02,.18v.02c.03,.09,.06,.17,.11,.24l15.7,24.75-15.71,33.83L19.94,371.94h-.01L.5,395.03v1.52l26.71,46.13h.01c.04,.09,.1,.15,.17,.21l.03,.02s.03,.02,.04,.03l88.19,55.53h0l.03,.02s.07,.03,.1,.05c.02,0,.04,.02,.06,.03h0s.05,.01,.07,.02c.04,0,.09,.02,.13,.02,.01,0,.02,0,.04,0h0s.06,0,.09,0h.03s.07-.02,.1-.03c0,0,.02,0,.03,0,.01,0,.02,0,.03-.01h.02l.03-.02c60.81-23.81,152.62-59.08,157.55-59.18h.07c5.08,1.37,105.53,12.68,112.55,13.47l54.16,47.66h2.32l-54.54-48,33.43-8.06,38.02,56.06h1.85l-38.28-56.44,51.87-12.5,8.02,68.95h1.54l-8.06-69.31,129.24-31.15Zm39.2-47.11l-93.48,.52,56.22-33.93,56.62,10.13-19.37,23.27Zm-77.39-239.08l-13.41,5.24-62.42-59.51,75.83,54.27Zm-78.32-57.93l38.88,16.2,35.47,37.01-74.35-53.21Zm158.43,204.99l15.35,9.46-12.26,5.21-20.38-10.56,17.28-4.12Zm-19.37,3.04l-88.93-46.07,46.1,4.68,60.35,37.21-17.52,4.18Zm21.47-3.55l40.31-9.61,5.85,5.58-31.19,13.27-14.97-9.23Zm42.08-10.04l5.78-1.38,4.53,4.72-4.7,2-5.61-5.35Zm-1.32-1.26l-18.66-17.78,9.78,.99,14.75,15.39-5.88,1.4Zm-1.78,.42l-40.83,9.74-58.97-36.35,80.43,8.16,19.36,18.46Zm-102.78-28.46l-107.99-66.58,166.72,53.05,22.87,21.81-81.61-8.28Zm-3.49-.35l-45.08-4.57h0l-1.59-.16-58.66-60.21,105.33,64.94Zm43.54,43.78l-134.39,32.05,44.12-78.81,90.26,46.76Zm-136.2,32.16l-31.42-17.45,74.48-59.44-43.06,76.9Zm-1.16,1.11l-56.01,38.14-27.63-31.03,7.68-34.33,44.06,9.51,31.9,17.72Zm-84.05,8.94l25.66,28.82-30.34-7.93,4.67-20.9Zm-.84-3.25l-38.4-43.13,45.84,9.89-7.44,33.24Zm9.27-34.42l2.37-10.59,36.25,18.93-38.62-8.33Zm-1.5-.32l-47.9-10.33-44.85-50.38,95.21,49.71-2.46,11.01Zm-50.43-10.88l-27.19-5.87-16.3-42.98,43.48,48.84Zm-28.97-6.25l-70.94-15.31,54.02-29.32,16.92,44.63Zm.65,1.71l23.89,63-39.82-10.41-56.6-68.25,72.53,15.65Zm46.47,130.24l-103.07-86.69,39.81,10.4,63.26,76.28Zm-60.72-75.62l38.81,10.14,25.6,67.52-64.41-77.66Zm16.04-54.23l28.27,6.1,40.53,45.52-4.9,21.92-39.97-10.44-23.92-63.09Zm65.04,75.42l31.52,8.24-44.45,49.57,12.93-57.81Zm33.1,8.77l32.34,16.75-76.88,32.92,44.54-49.67Zm1.32-1.04l54.43-37.06-22,53.85-32.43-16.79Zm56.58-38.26l74.74,13.38-97.08,41.31,22.34-54.68Zm3.28-.97l134.24-32.02,20.83,10.79-81.03,34.48-74.04-13.25Zm156.83-20.31l12.93,6.7-56.23,33.93-36.73-6.57,80.04-34.06Zm1.83-.78l12.09-5.14,9.85,6.08-9.3,5.61-12.64-6.55Zm13.82-5.88l30.8-13.1,4,3.82-25.2,15.21-9.6-5.92Zm32.33-13.76l4.63-1.97,3.12,3.25-3.92,2.37-3.83-3.65Zm6.14-2.61l27.36-11.64-24.4,14.73-2.96-3.08Zm-1.13-1.18l-4.31-4.49,33.84-8.07-29.53,12.57Zm-5.54-5.78l-14.13-14.74,53.28,5.4-39.15,9.34Zm-15.76-16.45l-15.61-16.29,67.85,21.59-52.23-5.3Zm-2.35-.24l-9.95-1.01-22.03-21,15.66,4.98,16.32,17.02Zm-34.51-24.42l-90.15-85.94,13.67-5.34,.29,.21,92.16,96.15-15.98-5.08Zm-3.33-1.06l-167.61-53.33,79.22-30.93,88.39,84.26Zm-108.74,10.62l-106.13-10.63,45.01-52.11,61.12,62.74Zm.07,1.55l-76.57,61.11-41.19-21.51,11.25-50.28,106.51,10.67Zm-119.17,38.87l-95.77-50,106.86,.39-11.1,49.61Zm-97.89-51.54s-.07-.09-.11-.13l17.28-112.06,91.16,112.59-108.33-.4Zm-1.59-.56l-74.62-5.13,91.74-105.81-17.11,110.95Zm-56.55,33.64l56,67.52-40.86-10.68-62.97-52.96,47.83-3.89Zm-50.64,4.22l12.88,38.8-41.32-10.8,28.44-28Zm-.49-2.43l-30.97-8.43,58.53-28.43-27.56,36.86Zm2.41,3.35l60.4,50.8-47.68-12.46-12.73-38.34Zm-60.71-46.23l13.11-36.23,72.99,38.82-86.1-2.6Zm83.11,4.04l-91.82,20.03,8.16-22.55,83.66,2.52Zm.14,1.54l-58.17,28.26-31.76-8.65,89.93-19.62Zm-58.02,29.89l30.44,8.29-76.13,13.91,45.68-22.19Zm31.59,9.63l-28.19,27.76-50.92-13.31,79.11-14.45Zm-29.46,29.01l-22.1,21.77-28.99-35.12,51.09,13.35Zm48.12,109.24l-148.56-8.19,78.22-77.02,70.34,85.21Zm-69.25-86.29l22.85-22.5,43.16,11.28,32.91,99.15-27.59-1.52-71.33-86.41Zm67.78-10.76l49.83,13.02,110.31,92.77-127.35-7.02-32.79-98.78Zm136.26,35.61l38.97,10.18-13.03,58.23-25.94-68.42Zm107.04,37.26l5.15,44.22-55.4,33.43-29.51-43.5,79.76-34.15Zm1.5-.35l78.22-.43-73.14,44.13-5.09-43.7Zm2.95-1.55l97.45-41.46,37.32,6.68-56.93,34.35-77.84,.43Zm194.8-25.59l-55.76-9.98,55.54-33.52,25.45,13.18-25.23,30.31Zm26.23-31.52l-24.91-12.9,9.18-5.54,20.54,12.67-4.81,5.78Zm5.8-6.96l-20.06-12.37,24.88-15.01,10.02,9.55-14.84,17.83Zm15.82-19.01l-9.64-9.19,3.86-2.33,8.22,8.58-2.44,2.93Zm3.43-4.12l-7.87-8.21,29.52-17.81-21.65,26.02Zm-52.17-54.43l-88.46-92.29,161.39,115.5-72.93-23.21Zm69.28,18.71l-163.08-116.71,30.02-11.72,133.06,128.43Zm-164.32-117.87l-37.86-39.5,67.25,28.02-29.39,11.48Zm24.69-15.1l-65.19-27.16-46.13-48.13,111.32,75.29ZM478.98,20.43l46.9,48.93-41.47-17.28-5.43-31.65Zm5.33,33.82l68.67,65.46-79.39,31,10.72-96.46Zm-11.89,93.13l-11.75-50.14,21.85-40.75-10.1,90.89Zm9.09-92.24l-21.37,39.84-4.97-21.19,26.33-18.65Zm-27.22,21.58l4.76,20.31-18.43,34.36,13.67-54.67Zm5.29,22.56l12.03,51.31-32.15-13.78,20.12-37.53Zm-21.51,38.6h0l33.35,14.3-44.93,52.02-90.35-111.6,101.93,45.27ZM356.41,24.23l19.55,11.45-40.32,51.03,20.77-62.49Zm-1.35-.79l-21.11,63.54-8.21-80.72,29.33,17.18Zm-30.83-16.83l8.34,81.96-43.85-43.32L324.22,6.61Zm-36.22,40.09l44.49,43.96-92.01,106.13,47.52-150.08Zm-1.94,1.05l-47.85,151.14s-.08,.02-.12,.04l-74.81-39.79,122.78-111.4Zm-95.85,11.9l13.99-19.32-42.66,117.89-30.84-16.4,59.5-82.17Zm-29.2,100.03l-13.35,36.9-10.65-.32-6.5-52.81,30.5,16.22Zm-31.41-11.04l5.86,47.58-11.16-.34,5.31-47.24Zm-4.74,48.79l10.78,.33,2.55,20.7-13.33-21.02Zm12.33,.37l9.91,.3-7.37,20.37-2.54-20.67Zm2.6,24.85l32.46,8.84-47.22,22.94,14.75-31.77Zm-16.14,34.87l29.78,36.07-76.82,75.65,47.04-111.72ZM22.22,371.69l98.72-111.65-47.01,111.65H22.22Zm244.31,65.21l-178.02-22.25-12.88-40.99,190.91,63.25Zm-233.98,7.44l30.5,8.12,45.21,39.55-75.71-47.67Zm31.88,7.29l23.27-34.57,26.76,78.34-50.03-43.77Zm129.07,15.44c-35.67,13.66-71.38,27.62-76.92,29.78l-27.53-80.59,180.86,22.61c-7.06,2.18-25.71,8.78-76.41,28.2Zm-113.35-93.53l145.96,8.04,45.8,55.48-191.76-63.53Zm148.04,8.16l26.79,1.48,17.2,51.8-43.98-53.28Zm28.43,1.57l125.84,6.94-107.81,47.39-18.03-54.32Zm20.17,55.06l108.17-47.55,1.19,60.47c-34.5-3.88-96.36-10.97-109.35-12.92Zm110.88,12.44l-1.15-58.59,28.53,42.06-27.38,16.52Zm3.9-.57l24.34-14.69,5.14,7.58-29.48,7.11Zm31.07-7.49l-5.42-7.99,54.73-33.03,3.3,28.33-52.61,12.68Zm50.75-41.89l75.94-45.82,94.76-.53-36.28,43.6-131.05,31.59-3.36-28.84Z"/></g></g></g></svg>